<svg xmlns="http://www.w3.org/2000/svg" viewBox="0 0 64 64">
  <!-- ChessMe logo: white bishop (cburnett pieces by Colin M.L. Burnett, GPL-2.0-or-later)
       looking at the horizon through a white and blue spyglass. -->
  <defs>
    <g id="bishop" fill="none" fill-rule="evenodd" stroke="#000" stroke-width="1.5" stroke-linecap="round" stroke-linejoin="round">
      <g fill="#fff" stroke-linecap="butt">
        <path d="M9 36c3.39-.97 10.11.43 13.5-2 3.39 2.43 10.11 1.03 13.5 2 0 0 1.65.54 3 2-.68.97-1.65.99-3 .5-3.39-.97-10.11.46-13.5-1-3.39 1.46-10.11.03-13.5 1-1.354.49-2.323.47-3-.5 1.354-1.94 3-2 3-2z"/>
        <path d="M15 32c2.5 2.5 12.5 2.5 15 0 .5-1.5 0-2 0-2 0-2.5-2.5-4-2.5-4 5.5-1.5 6-11.5-5-15.5-11 4-10.5 14-5 15.5 0 0-2.5 1.5-2.5 4 0 0-.5.5 0 2z"/>
        <path d="M25 8a2.5 2.5 0 1 1-5 0 2.5 2.5 0 1 1 5 0z"/>
      </g>
      <path d="M17.5 26h10M15 30h15m-7.5-14.5v5M20 18h5" stroke-linejoin="miter"/>
    </g>
  </defs>
  <rect width="64" height="64" rx="14" fill="#262421"/>
  <use href="#bishop" transform="translate(-3 4) scale(1.3)"/>
  <!-- Spyglass from the mitre towards the horizon: eyepiece, draw tube, main tube, objective -->
  <g transform="translate(32 26) rotate(-14)" stroke="#000" stroke-width="1.5" stroke-linejoin="round">
    <rect x="0" y="-2.5" width="6" height="5" rx="1" fill="#fff"/>
    <rect x="5" y="-3.5" width="8.5" height="7" rx="1" fill="#3692e7"/>
    <rect x="12.5" y="-4.5" width="10" height="9" rx="1" fill="#fff"/>
    <rect x="21.5" y="-5.5" width="4" height="11" rx="1.2" fill="#3692e7"/>
  </g>
</svg>
